<svg xmlns="http://www.w3.org/2000/svg" xmlns:xlink="http://www.w3.org/1999/xlink"
     id="demo_svg_defs" height="800" width="600">
<defs>
  <pattern id="grid_cell" width="10" height="10" patternUnits="userSpaceOnUse">
    <path d="M 0,0 v10 h10" fill="none" stroke="#aaa" stroke-width="1"/>
  </pattern>
  <pattern id="grid" width="100" height="100" patternUnits="userSpaceOnUse">
    <path d="M 0,0 v100 h100 v-100 z" stroke="#555" stroke-width="1" fill="url(#grid_cell)"/>
  </pattern>
  <marker id="arrow" markerWidth="10" markerHeight="10" refX="0" refY="2" orient="auto" markerUnits="strokeWidth">
    <path d="M0,0 L0,4 L5,2 z" fill="#f00" />
  </marker>
<!-- -->
</defs>
<!-- -->
<!-- <rect x=0 y=0 width="100%" height="100%" fill="url(#grid)"/> -->
<!-- -->
<text font-family="sans-serif" font-size="12" text-anchor="middle" x="50" y="20" dy="-5" text-decoration="underline">Program</text>
<text font-family="sans-serif" font-size="12" text-anchor="middle" x="200" y="20" dy="-5" text-decoration="underline">Vec&lt;Widget, &amp;mut Allocator&gt;</text>
<text font-family="sans-serif" font-size="12" text-anchor="middle" x="350" y="20" dy="-5" text-decoration="underline">Allocator</text>
<!-- -->
<path d="M 45,20 V 450" stroke="green" fill="none" stroke-width="3" />
<path d="M 345,50 V 450" stroke="green" fill="none" stroke-width="3" />
<path d="M 195,100 V 450" stroke="green" fill="none" stroke-width="3" />
<!-- -->
<path d="M 50,20 V50 h 280" stroke="red" fill="none" stroke-width="2" marker-end="url(#arrow)"/>
<text font-family="monospace" font-size="10" text-anchor="middle" x="150" y="50" dy="-3">create allocator</text>
<!-- -->
<path d="M 340,50 v 20" stroke="red" fill="none" stroke-width="2"/>
<path d="M 340,70 h -280" stroke="red" fill="none" stroke-width="2" marker-end="url(#arrow)" stroke-dasharray="6,4"/>
<text font-family="monospace" font-size="10" text-anchor="middle" x="150" y="70" dy="-3">return allocator A</text>
<!-- -->
<text font-family="monospace" font-size="10" text-anchor="middle" x="125" y="100" dy="-3">create vec with &amp;mut A</text>
<path d="M 50,70 V100 h 130" stroke="red" fill="none" stroke-width="2" marker-end="url(#arrow)"/>
<!-- -->
<path d="M 190,100 v 20" stroke="red" fill="none" stroke-width="2"/>
<path d="M 190,120 h -130" stroke="red" fill="none" stroke-width="2" marker-end="url(#arrow)" stroke-dasharray="6,4"/>
<text font-family="monospace" font-size="10" text-anchor="middle" x="125" y="120" dy="-3">return vec V</text>
<!-- -->
<path d="M 50,120 V150 h 130" stroke="red" fill="none" stroke-width="2" marker-end="url(#arrow)"/>
<text font-family="monospace" font-size="10" text-anchor="middle" x="125" y="150" dy="-3">V.push W<tspan dy="2">1</tspan></text>
<!-- -->
<path d="M 200,150 V170 h 130" stroke="red" fill="none" stroke-width="2" marker-end="url(#arrow)"/>
<text font-family="monospace" font-size="10" text-anchor="middle" x="275" y="170" dy="-3">allocate W array</text>
<text font-family="sans-serif" font-size="10" text-anchor="left" x="350" y="190" dy="-3">(might request system memory)</text>
<path d="M 340,170 v 30" stroke="red" fill="none" stroke-width="2"/>
<path d="M 340,200 h -130" stroke="red" fill="none" stroke-width="2" marker-end="url(#arrow)" stroke-dasharray="6,4"/>
<!-- -->
<path d="M 190,200 v 20" stroke="red" fill="none" stroke-width="2"/>
<path d="M 190,220 h -130" stroke="red" fill="none" stroke-width="2" marker-end="url(#arrow)" stroke-dasharray="6,4"/>
<path d="M 50,220 v20 h 130" stroke="red" fill="none" stroke-width="2" marker-end="url(#arrow)"/>
<text font-family="monospace" font-size="10" text-anchor="middle" x="125" y="240" dy="-3">V.push W<tspan dy="2">2</tspan></text>
<!-- -->
<path d="M 190,240 v 20" stroke="red" fill="none" stroke-width="2"/>
<path d="M 190,260 h -130" stroke="red" fill="none" stroke-width="2" marker-end="url(#arrow)" stroke-dasharray="6,4"/>
<path d="M 50,260 v20 h 130" stroke="red" fill="none" stroke-width="2" marker-end="url(#arrow)"/>
<text font-family="monospace" font-size="10" text-anchor="middle" x="125" y="280" dy="-3">V.push W<tspan dy="2">3</tspan></text>
<!-- -->
<path d="M 190,280 v 20" stroke="red" fill="none" stroke-width="2"/>
<path d="M 190,300 h -130" stroke="red" fill="none" stroke-width="2" marker-end="url(#arrow)" stroke-dasharray="6,4"/>
<path d="M 50,300 v20 h 130" stroke="red" fill="none" stroke-width="2" marker-end="url(#arrow)"/>
<text font-family="monospace" font-size="10" text-anchor="middle" x="125" y="320" dy="-3">V.push W<tspan dy="2">4</tspan></text>
<!-- -->
<path d="M 190,320 v 20" stroke="red" fill="none" stroke-width="2"/>
<path d="M 190,340 h -130" stroke="red" fill="none" stroke-width="2" marker-end="url(#arrow)" stroke-dasharray="6,4"/>
<path d="M 50,340 v20 h 130" stroke="red" fill="none" stroke-width="2" marker-end="url(#arrow)"/>
<text font-family="monospace" font-size="10" text-anchor="middle" x="125" y="360" dy="-3">V.push W<tspan dy="2">5</tspan></text>
<!-- -->
<path d="M 200,360 v20 h 130" stroke="red" fill="none" stroke-width="2" marker-end="url(#arrow)"/>
<text font-family="monospace" font-size="10" text-anchor="middle" x="275" y="380" dy="-3">realloc W array</text>
<text font-family="sans-serif" font-size="10" text-anchor="left" x="350" y="400" dy="-3">(might request system memory)</text>
<path d="M 340,380 v 30" stroke="red" fill="none" stroke-width="2"/>
<path d="M 340,410 h -130" stroke="red" fill="none" stroke-width="2" marker-end="url(#arrow)" stroke-dasharray="6,4"/>
<!-- -->
<path d="M 190,410 v 20" stroke="red" fill="none" stroke-width="2"/>
<path d="M 190,430 h -130" stroke="red" fill="none" stroke-width="2" marker-end="url(#arrow)" stroke-dasharray="6,4"/>
<!-- -->
<path d="M 45,450 V 500" stroke="green" fill="none" stroke-width="3" stroke-dasharray="3,3"/>
<path d="M 345,450 V 500" stroke="green" fill="none" stroke-width="3" stroke-dasharray="3,3"/>
<path d="M 195,450 V 500" stroke="green" fill="none" stroke-width="3" stroke-dasharray="3,3"/>
<path d="M 195,500 v 100" stroke="green" fill="none" stroke-width="3" />
<path d="M 45,500 v 300" stroke="green" fill="none" stroke-width="3" />
<path d="M 345,500 V 720" stroke="green" fill="none" stroke-width="3" />
<!-- -->
<path d="M 50,430 V 500" stroke="red" fill="none" stroke-width="2"/>
<path d="M 190,340 h -130" stroke="red" fill="none" stroke-width="2" marker-end="url(#arrow)" stroke-dasharray="6,4"/>
<!-- -->
<path d="M 50,500 v 40 h 130" stroke="red" fill="none" stroke-width="2" marker-end="url(#arrow)"/>
<text font-family="sans-serif" font-size="10" text-anchor="left" x="55" y="500" dy="-3">(end of scope for V)</text>
<text font-family="monospace" font-size="10" text-anchor="middle" x="125" y="540" dy="-3">call V destructor</text>
<!-- -->
<path d="M 200,540 v20 h 130" stroke="red" fill="none" stroke-width="2" marker-end="url(#arrow)"/>
<text font-family="monospace" font-size="10" text-anchor="middle" x="275" y="560" dy="-3">dealloc W array</text>
<text font-family="sans-serif" font-size="10" text-anchor="left" x="350" y="580" dy="-3">(might return memory blocks to system)</text>
<path d="M 340,560 v 20" stroke="red" fill="none" stroke-width="2"/>
<path d="M 340,580 h -130" stroke="red" fill="none" stroke-width="2" marker-end="url(#arrow)" stroke-dasharray="6,4"/>
<path d="M 190,580 v 20" stroke="red" fill="none" stroke-width="2"/>
<path d="M 190,600 h -130" stroke="red" fill="none" stroke-width="2" marker-end="url(#arrow)" stroke-dasharray="6,4"/>
<!-- -->
<text font-family="sans-serif" font-size="10" text-anchor="left" x="55" y="650" dy="-3">(end of scope for A)</text>
<path d="M 50,600 v 90 h 280" stroke="red" fill="none" stroke-width="2" marker-end="url(#arrow)"/>
<text font-family="monospace" font-size="10" text-anchor="middle" x="150" y="690" dy="-3">call A destructor</text>
<text font-family="sans-serif" font-size="10" text-anchor="left" x="350" y="700" dy="-3">(must return all remaining blocks to system)</text>
<path d="M 340,690 v 30" stroke="red" fill="none" stroke-width="2"/>
<path d="M 340,720 h -280" stroke="red" fill="none" stroke-width="2" marker-end="url(#arrow)" stroke-dasharray="6,4"/>
<path d="M 50,720 V 800" stroke="red" fill="none" stroke-width="2"/>
<!-- -->
</svg>
